<?xml version="1.0" encoding="UTF-8" standalone="no"?>
<svg width="1200" height="400" viewBox="0 0 1200 400" xmlns="http://www.w3.org/2000/svg">

  <defs>
    <linearGradient id="bg" x1="0" y1="0" x2="1" y2="1">
      <stop offset="0%" stop-color="#0b0f1a" />
      <stop offset="100%" stop-color="#111827" />
    </linearGradient>

    <linearGradient id="accent" x1="0" y1="0" x2="1" y2="0">
      <stop offset="0%" stop-color="#93c5fd" />
      <stop offset="100%" stop-color="#60a5fa" />
    </linearGradient>
  </defs>

  <rect width="1200" height="400" fill="url(#bg)" />

  <!-- Network nodes -->
  <g opacity="0.35">
    <circle cx="150" cy="120" r="4" fill="#93c5fd" />
    <circle cx="350" cy="220" r="4" fill="#93c5fd" />
    <circle cx="550" cy="100" r="4" fill="#93c5fd" />
    <circle cx="750" cy="240" r="4" fill="#93c5fd" />
    <circle cx="950" cy="140" r="4" fill="#93c5fd" />
    <circle cx="1100" cy="260" r="4" fill="#93c5fd" />

    <path id="p1" d="M150 120 L350 220 L550 100" stroke="#93c5fd" opacity="0.2" fill="none" />
    <path id="p2" d="M550 100 L750 240 L950 140" stroke="#93c5fd" opacity="0.2" fill="none" />
    <path id="p3" d="M350 220 L750 240 L1100 260" stroke="#93c5fd" opacity="0.2" fill="none" />
  </g>

  <!-- PACKETS -->
  <circle r="5" fill="#60a5fa">
    <animateMotion dur="3s" repeatCount="indefinite">
      <mpath href="#p1" />
    </animateMotion>
  </circle>

  <circle r="5" fill="#93c5fd">
    <animateMotion dur="4s" repeatCount="indefinite">
      <mpath href="#p2" />
    </animateMotion>
  </circle>

  <circle r="5" fill="#60a5fa">
    <animateMotion dur="3.5s" repeatCount="indefinite">
      <mpath href="#p3" />
    </animateMotion>
  </circle>

  <!-- Title (clean, no neon) -->
  <text x="80" y="180" font-size="68" font-family="Arial, sans-serif" fill="#e5e7eb" font-weight="bold">
    NetStat
  </text>

  <!-- Subtitle -->
  <text x="80" y="220" font-size="22" font-family="Arial, sans-serif" fill="#cbd5e1">
    Escáner de IPs en red local
  </text>

  <!-- Description -->
  <text x="80" y="255" font-size="18" font-family="Arial, sans-serif" fill="#94a3b8">
    Tu scanner de red
  </text>

  <!-- Subtle line -->
  <rect x="80" y="270" width="400" height="2" fill="#334155" />

</svg>
